<svg width="102" height="104" viewBox="0 0 102 104" fill="none" xmlns="http://www.w3.org/2000/svg">
<path d="M51.0036 85.3552C50.7171 85.3552 50.4447 85.2988 50.1792 85.1929C33.9909 78.5187 23.5388 62.8068 23.5388 45.1617V32.2788C23.5388 31.3828 24.0698 30.5856 24.8873 30.2399L50.1652 19.643C50.4307 19.5301 50.7102 19.4736 50.9966 19.4736C51.2831 19.4736 51.5695 19.5301 51.835 19.643L77.113 30.2399C77.9304 30.5856 78.4614 31.3828 78.4614 32.2788V45.1617C78.4614 62.8068 68.0093 78.5258 51.828 85.1929C51.5625 85.2988 51.2831 85.3552 51.0036 85.3552ZM27.9055 33.7463V45.1546C27.9055 60.535 36.9114 74.4831 50.8429 80.6847L51.0036 80.7552L51.1643 80.6847C65.0958 74.4831 74.1017 60.542 74.1017 45.1546V33.7463L51.0036 24.0666L27.9055 33.7463ZM48.146 59.8295C47.5661 59.8295 47.0142 59.5966 46.602 59.1804L39.3987 51.9064C38.9864 51.4902 38.7559 50.9328 38.7559 50.3472C38.7559 49.7617 38.9864 49.2043 39.3987 48.788C39.8109 48.3718 40.3628 48.139 40.9427 48.139C41.5226 48.139 42.0746 48.3718 42.4868 48.788L48.153 54.5098L59.5204 43.031C59.9326 42.6147 60.4846 42.3819 61.0645 42.3819C61.6444 42.3819 62.1963 42.6147 62.6085 43.031C63.0208 43.4472 63.2513 44.0046 63.2513 44.5902C63.2513 45.1758 63.0208 45.7331 62.6085 46.1494L49.6901 59.1804C49.2779 59.5966 48.7329 59.8295 48.146 59.8295Z" fill="#B3C41D"/>
</svg>
