<svg width="31" height="31" viewBox="0 0 31 31" fill="none" xmlns="http://www.w3.org/2000/svg">
<path d="M24.1654 12.2859L23.0568 11.2224V8.82509C23.0568 7.28124 21.8024 6.02686 20.2586 6.02686C18.8519 6.02686 17.6876 7.0711 17.4925 8.42412H14.2633C13.843 8.42412 13.4313 8.59566 13.1332 8.89156L5.93717 16.0876C5.64127 16.3857 5.46973 16.7974 5.46973 17.2198C5.46973 17.6422 5.64127 18.0518 5.93717 18.3498L10.7338 23.1465C11.0319 23.4445 11.4436 23.6139 11.8639 23.6139C12.2841 23.6139 12.6958 23.4424 12.9939 23.1465L14.2611 21.8792V23.6161C14.2611 24.0363 14.4391 24.4502 14.75 24.7504C15.0545 25.0463 15.479 25.2157 15.9165 25.2157H22.9989C23.4342 25.2157 23.8587 25.0463 24.1654 24.7504C24.4763 24.4502 24.6543 24.0363 24.6543 23.6161V13.4223C24.6564 13.0021 24.4784 12.5882 24.1654 12.2859ZM20.2586 6.82666C21.3607 6.82666 22.257 7.72295 22.257 8.82509V10.4569L20.6252 8.89156C20.2671 8.54205 19.7632 8.38338 19.2701 8.4477C19.2014 8.43484 19.1328 8.42841 19.0599 8.42841H18.3009C18.4874 7.51496 19.2936 6.82666 20.2586 6.82666ZM17.8613 9.99799C18.5367 9.99799 19.0857 10.5469 19.0857 11.2224C19.0857 11.8978 18.5367 12.4467 17.8613 12.4467C17.1859 12.4467 16.6369 11.8978 16.6369 11.2224C16.6369 10.5491 17.1859 9.99799 17.8613 9.99799ZM23.8566 23.6139C23.8566 23.8176 23.7665 24.0235 23.61 24.1736C23.4535 24.3258 23.2305 24.4116 23.001 24.4116H15.9186C15.6892 24.4116 15.4662 24.3237 15.3096 24.1736C15.1531 24.0235 15.0631 23.8176 15.0631 23.6139V21.0794L20.1899 15.9525C20.488 15.6545 20.6574 15.2428 20.6574 14.8225V10.0302L23.61 12.8606C23.7665 13.0106 23.8566 13.2165 23.8566 13.4202V23.6139Z" fill="#13A6BA"/>
<path d="M17.8613 11.6233C18.0821 11.6233 18.2601 11.4432 18.2601 11.2245C18.2601 11.0037 18.08 10.8257 17.8613 10.8257C17.6425 10.8257 17.4624 11.0058 17.4624 11.2245C17.4603 11.4432 17.6404 11.6233 17.8613 11.6233Z" fill="#13A6BA"/>
</svg>
