<svg width="31" height="31" viewBox="0 0 31 31" fill="none" xmlns="http://www.w3.org/2000/svg">
<path d="M22.5944 11.1084C22.2134 10.6453 21.7418 10.281 21.2154 10.0326C21.2365 9.85998 21.2491 9.68523 21.2491 9.51049C21.2491 7.22197 19.388 5.36084 17.1016 5.36084C14.8152 5.36084 12.9519 7.22197 12.9519 9.51049C12.9519 10.1337 13.093 10.7505 13.3604 11.3085C12.5203 12.5548 12.4445 14.1991 13.2109 15.5234L10.9245 17.8077L6.93063 21.8036C6.53061 22.2036 6.53061 22.8563 6.93063 23.2563C7.33064 23.6563 7.9833 23.6563 8.38332 23.2563L9.02545 22.6142L9.46547 23.0542C9.86549 23.4542 10.5181 23.4542 10.9182 23.0542C11.3182 22.6542 11.3182 22.0015 10.9182 21.6015L10.4781 21.1615L10.8339 20.8057L11.274 21.2457C11.6571 21.6436 12.3456 21.6436 12.7267 21.2457C13.1246 20.8625 13.1246 20.1741 12.7267 19.793L12.2866 19.353L14.6657 16.974C15.6615 17.5508 16.8679 17.6666 17.9627 17.2855C18.0321 17.315 18.1016 17.3424 18.1711 17.3698V21.8499V23.4079V24.4522C18.1711 24.528 18.2006 24.6016 18.2511 24.6585L19.3017 25.787C19.4111 25.9091 19.6196 25.9133 19.7333 25.7954L20.8723 24.6669C20.9291 24.6101 20.9607 24.5343 20.9607 24.4522V23.4563C20.9607 23.3637 20.9186 23.2753 20.8449 23.2184L20.1817 22.7047L20.8449 22.191C20.9986 22.0773 20.9986 21.8289 20.8449 21.7152L20.1817 21.2015L20.8449 20.6878C20.9986 20.5741 20.9986 20.3257 20.8449 20.212L20.1817 19.6983L20.8449 19.1846C20.9186 19.1277 20.9607 19.0393 20.9607 18.9467V17.3382C22.485 16.7466 23.4934 15.2855 23.4934 13.6328C23.4934 13.1549 23.4092 12.6854 23.2429 12.2411C23.1755 12.0601 23.0829 11.8495 22.9502 11.6243C22.8345 11.4179 22.7102 11.2474 22.5944 11.1084ZM18.8132 12.5906C18.8132 12.1885 19.1396 11.8601 19.5438 11.8601C19.6091 11.8601 19.6722 11.8706 19.7333 11.8853C19.4722 12.1738 19.1648 12.4201 18.8153 12.6138C18.8153 12.6075 18.8132 12.599 18.8132 12.5906ZM19.5438 13.3212C19.369 13.3212 19.2069 13.258 19.0827 13.1549C19.5101 12.9233 19.8849 12.6222 20.2007 12.2706C20.2491 12.3674 20.2764 12.4748 20.2764 12.5906C20.2722 12.9948 19.9459 13.3212 19.5438 13.3212ZM17.1016 5.96297C19.0575 5.96297 20.6491 7.55462 20.6491 9.51049C20.6491 9.61154 20.6449 9.7126 20.6365 9.81366C20.2786 9.71049 19.9059 9.65576 19.5227 9.65576C19.0659 9.65576 18.6259 9.73365 18.2174 9.87682C16.7331 9.24521 14.992 9.57575 13.8467 10.7232C13.8278 10.7421 13.8109 10.7611 13.792 10.78C13.6383 10.3779 13.5583 9.94629 13.5583 9.51049C13.5541 7.55462 15.1457 5.96297 17.1016 5.96297ZM14.7878 16.3424C14.6678 16.2623 14.5099 16.2792 14.4088 16.3802L11.6487 19.1404C11.5308 19.2583 11.5308 19.4477 11.6487 19.5656L12.3014 20.2183C12.4656 20.3762 12.4656 20.6604 12.3014 20.8204C12.1435 20.9847 11.8593 20.9847 11.6992 20.8204L11.0466 20.1678C10.9287 20.0499 10.7392 20.0499 10.6213 20.1678L9.84022 20.9489C9.72443 21.0604 9.72443 21.2626 9.84022 21.3741L10.4929 22.0268C10.6592 22.1931 10.6592 22.4626 10.4929 22.6289C10.3266 22.7953 10.0571 22.7953 9.89075 22.6289L9.23809 21.9763C9.12019 21.8584 8.93071 21.8584 8.81281 21.9763L7.95804 22.831C7.79172 22.9974 7.52223 22.9974 7.35591 22.831C7.18959 22.6647 7.18959 22.3952 7.35591 22.2289L10.874 18.7109L13.8067 15.7781C13.9078 15.6771 13.9246 15.5171 13.8446 15.3992C12.9582 14.0686 13.1372 12.2811 14.2699 11.1485C15.1036 10.3147 16.31 9.9884 17.4321 10.2516C17.0342 10.4979 16.6847 10.8116 16.3963 11.1779C15.8615 11.2369 15.3626 11.4748 14.9794 11.858C14.0551 12.7822 14.0551 14.2854 14.9794 15.2097C15.3247 15.5549 15.7563 15.7802 16.2342 15.8644C16.2721 15.9192 16.31 15.9739 16.3521 16.0287C16.5942 16.3487 16.8847 16.6287 17.2068 16.8603C16.371 16.9971 15.5036 16.8182 14.7878 16.3424ZM15.8236 15.0939C15.6699 15.0118 15.531 14.9086 15.4047 14.7823C14.9394 14.317 14.7878 13.6517 14.952 13.058C15.1457 13.1759 15.3457 13.2749 15.5563 13.3591C15.5499 13.4475 15.5478 13.538 15.5478 13.6286C15.5457 14.138 15.6405 14.6328 15.8236 15.0939ZM15.6447 12.7443C15.4952 12.6769 15.3499 12.599 15.211 12.5106C15.2678 12.4306 15.331 12.3527 15.4047 12.2811C15.5584 12.1274 15.7394 12.0032 15.9352 11.9169C15.8089 12.178 15.712 12.4559 15.6447 12.7443Z" fill="#13A6BA"/>
</svg>
